<mxfile host="app.diagrams.net" modified="2022-07-28T11:55:37.611Z" agent="5.0 (Windows NT 10.0; Win64; x64) AppleWebKit/537.36 (KHTML, like Gecko) Chrome/103.0.0.0 Safari/537.36" etag="EEWcJOth7TXLrabg5_Yj" version="20.2.1" type="github">
  <diagram id="VwBuRcIMg6o2L0P68NVx" name="페이지-1">
    <mxGraphModel dx="1422" dy="705" grid="0" gridSize="10" guides="1" tooltips="1" connect="1" arrows="1" fold="1" page="1" pageScale="1" pageWidth="827" pageHeight="1169" math="0" shadow="0">
      <root>
        <mxCell id="0" />
        <mxCell id="1" parent="0" />
        <mxCell id="YyA1JXK225TJ4eiLF_QA-1" value="&lt;b&gt;API Server&lt;/b&gt;" style="text;html=1;strokeColor=#6c8ebf;fillColor=#dae8fc;align=center;verticalAlign=middle;whiteSpace=wrap;rounded=0;" vertex="1" parent="1">
          <mxGeometry x="80" y="80" width="80" height="40" as="geometry" />
        </mxCell>
        <mxCell id="YyA1JXK225TJ4eiLF_QA-2" value="&lt;b&gt;TM&lt;/b&gt;" style="text;html=1;strokeColor=#6c8ebf;fillColor=#dae8fc;align=center;verticalAlign=middle;whiteSpace=wrap;rounded=0;" vertex="1" parent="1">
          <mxGeometry x="240" y="80" width="80" height="40" as="geometry" />
        </mxCell>
        <mxCell id="YyA1JXK225TJ4eiLF_QA-3" value="&lt;b&gt;DB&lt;/b&gt;" style="text;html=1;strokeColor=#6c8ebf;fillColor=#dae8fc;align=center;verticalAlign=middle;whiteSpace=wrap;rounded=0;" vertex="1" parent="1">
          <mxGeometry x="400" y="80" width="80" height="40" as="geometry" />
        </mxCell>
        <mxCell id="YyA1JXK225TJ4eiLF_QA-4" value="&lt;b&gt;NAS&lt;/b&gt;" style="text;html=1;strokeColor=#6c8ebf;fillColor=#dae8fc;align=center;verticalAlign=middle;whiteSpace=wrap;rounded=0;" vertex="1" parent="1">
          <mxGeometry x="560" y="80" width="80" height="40" as="geometry" />
        </mxCell>
        <mxCell id="YyA1JXK225TJ4eiLF_QA-5" value="" style="endArrow=none;dashed=1;html=1;rounded=0;entryX=0.5;entryY=1;entryDx=0;entryDy=0;" edge="1" parent="1" target="YyA1JXK225TJ4eiLF_QA-1">
          <mxGeometry width="50" height="50" relative="1" as="geometry">
            <mxPoint x="120" y="640" as="sourcePoint" />
            <mxPoint x="390" y="320" as="targetPoint" />
          </mxGeometry>
        </mxCell>
        <mxCell id="YyA1JXK225TJ4eiLF_QA-6" value="" style="endArrow=none;dashed=1;html=1;rounded=0;entryX=0.5;entryY=1;entryDx=0;entryDy=0;" edge="1" parent="1" target="YyA1JXK225TJ4eiLF_QA-2">
          <mxGeometry width="50" height="50" relative="1" as="geometry">
            <mxPoint x="280" y="640" as="sourcePoint" />
            <mxPoint x="280" y="150" as="targetPoint" />
          </mxGeometry>
        </mxCell>
        <mxCell id="YyA1JXK225TJ4eiLF_QA-7" value="" style="endArrow=none;dashed=1;html=1;rounded=0;entryX=0.5;entryY=1;entryDx=0;entryDy=0;" edge="1" parent="1" target="YyA1JXK225TJ4eiLF_QA-3">
          <mxGeometry width="50" height="50" relative="1" as="geometry">
            <mxPoint x="440" y="640" as="sourcePoint" />
            <mxPoint x="430" y="140" as="targetPoint" />
          </mxGeometry>
        </mxCell>
        <mxCell id="YyA1JXK225TJ4eiLF_QA-8" value="" style="endArrow=none;dashed=1;html=1;rounded=0;entryX=0.5;entryY=1;entryDx=0;entryDy=0;" edge="1" parent="1" target="YyA1JXK225TJ4eiLF_QA-4">
          <mxGeometry width="50" height="50" relative="1" as="geometry">
            <mxPoint x="600" y="640" as="sourcePoint" />
            <mxPoint x="580" y="130" as="targetPoint" />
          </mxGeometry>
        </mxCell>
        <mxCell id="YyA1JXK225TJ4eiLF_QA-9" value="&lt;b&gt;&amp;nbsp;request&amp;nbsp;&lt;/b&gt;" style="endArrow=classic;html=1;rounded=0;" edge="1" parent="1">
          <mxGeometry width="50" height="50" relative="1" as="geometry">
            <mxPoint x="120" y="160" as="sourcePoint" />
            <mxPoint x="270" y="160" as="targetPoint" />
          </mxGeometry>
        </mxCell>
        <mxCell id="YyA1JXK225TJ4eiLF_QA-10" value="" style="rounded=0;whiteSpace=wrap;html=1;" vertex="1" parent="1">
          <mxGeometry x="270" y="150" width="20" height="430" as="geometry" />
        </mxCell>
        <mxCell id="YyA1JXK225TJ4eiLF_QA-11" value="" style="rounded=0;whiteSpace=wrap;html=1;" vertex="1" parent="1">
          <mxGeometry x="280" y="160" width="20" height="40" as="geometry" />
        </mxCell>
        <mxCell id="YyA1JXK225TJ4eiLF_QA-13" value="&lt;b&gt;verify message&lt;/b&gt;" style="text;html=1;strokeColor=none;fillColor=none;align=center;verticalAlign=middle;whiteSpace=wrap;rounded=0;" vertex="1" parent="1">
          <mxGeometry x="300" y="165" width="60" height="30" as="geometry" />
        </mxCell>
        <mxCell id="YyA1JXK225TJ4eiLF_QA-15" value="&lt;b&gt;&amp;nbsp;타임라인 정보 Select&amp;nbsp;&lt;/b&gt;" style="endArrow=classic;html=1;rounded=0;" edge="1" parent="1">
          <mxGeometry width="50" height="50" relative="1" as="geometry">
            <mxPoint x="290" y="220" as="sourcePoint" />
            <mxPoint x="440" y="220" as="targetPoint" />
          </mxGeometry>
        </mxCell>
        <mxCell id="YyA1JXK225TJ4eiLF_QA-16" value="" style="endArrow=classic;html=1;rounded=0;" edge="1" parent="1">
          <mxGeometry width="50" height="50" relative="1" as="geometry">
            <mxPoint x="440" y="240" as="sourcePoint" />
            <mxPoint x="290" y="240" as="targetPoint" />
          </mxGeometry>
        </mxCell>
        <mxCell id="YyA1JXK225TJ4eiLF_QA-31" value="&lt;b&gt;YES&lt;/b&gt;" style="edgeStyle=orthogonalEdgeStyle;rounded=0;orthogonalLoop=1;jettySize=auto;html=1;exitX=0;exitY=0.5;exitDx=0;exitDy=0;entryX=0;entryY=0.933;entryDx=0;entryDy=0;entryPerimeter=0;strokeColor=#6c8ebf;fillColor=#dae8fc;" edge="1" parent="1" source="YyA1JXK225TJ4eiLF_QA-17" target="YyA1JXK225TJ4eiLF_QA-10">
          <mxGeometry relative="1" as="geometry" />
        </mxCell>
        <mxCell id="YyA1JXK225TJ4eiLF_QA-17" value="&lt;b&gt;요청한 시간과 녹화 된 시간이 같다면&lt;/b&gt;" style="rounded=0;whiteSpace=wrap;html=1;" vertex="1" parent="1">
          <mxGeometry x="225" y="260" width="110" height="40" as="geometry" />
        </mxCell>
        <mxCell id="YyA1JXK225TJ4eiLF_QA-19" value="" style="rounded=0;whiteSpace=wrap;html=1;" vertex="1" parent="1">
          <mxGeometry x="280" y="330" width="20" height="210" as="geometry" />
        </mxCell>
        <mxCell id="YyA1JXK225TJ4eiLF_QA-20" value="&lt;b&gt;&amp;nbsp;NO&amp;nbsp;&lt;/b&gt;" style="endArrow=classic;html=1;rounded=0;exitX=0;exitY=0.75;exitDx=0;exitDy=0;entryX=0.5;entryY=0;entryDx=0;entryDy=0;strokeColor=#FF0000;" edge="1" parent="1" source="YyA1JXK225TJ4eiLF_QA-17" target="YyA1JXK225TJ4eiLF_QA-19">
          <mxGeometry width="50" height="50" relative="1" as="geometry">
            <mxPoint x="550" y="330" as="sourcePoint" />
            <mxPoint x="600" y="280" as="targetPoint" />
            <Array as="points">
              <mxPoint x="210" y="290" />
              <mxPoint x="210" y="310" />
              <mxPoint x="290" y="310" />
            </Array>
          </mxGeometry>
        </mxCell>
        <mxCell id="YyA1JXK225TJ4eiLF_QA-21" value="" style="rounded=0;whiteSpace=wrap;html=1;" vertex="1" parent="1">
          <mxGeometry x="290" y="340" width="20" height="90" as="geometry" />
        </mxCell>
        <mxCell id="YyA1JXK225TJ4eiLF_QA-24" value="&lt;b&gt;&amp;nbsp;read_flag = 1 이면&amp;nbsp;&lt;br&gt;녹화 smf READ&lt;/b&gt;" style="endArrow=classic;html=1;rounded=0;strokeColor=#000000;" edge="1" parent="1">
          <mxGeometry width="50" height="50" relative="1" as="geometry">
            <mxPoint x="310" y="370" as="sourcePoint" />
            <mxPoint x="600" y="370" as="targetPoint" />
          </mxGeometry>
        </mxCell>
        <mxCell id="YyA1JXK225TJ4eiLF_QA-25" value="" style="endArrow=classic;html=1;rounded=0;strokeColor=#000000;" edge="1" parent="1">
          <mxGeometry width="50" height="50" relative="1" as="geometry">
            <mxPoint x="599" y="400" as="sourcePoint" />
            <mxPoint x="309" y="400" as="targetPoint" />
          </mxGeometry>
        </mxCell>
        <mxCell id="YyA1JXK225TJ4eiLF_QA-26" value="&lt;b&gt;&amp;nbsp;1번과 3번을 합친 구간에&amp;nbsp;&lt;br&gt;&amp;nbsp;빈곳이 있다면 백업 smf READ&amp;nbsp;&lt;/b&gt;" style="endArrow=classic;html=1;rounded=0;strokeColor=#000000;" edge="1" parent="1">
          <mxGeometry width="50" height="50" relative="1" as="geometry">
            <mxPoint x="300" y="470" as="sourcePoint" />
            <mxPoint x="600" y="470" as="targetPoint" />
          </mxGeometry>
        </mxCell>
        <mxCell id="YyA1JXK225TJ4eiLF_QA-27" value="" style="endArrow=classic;html=1;rounded=0;strokeColor=#000000;" edge="1" parent="1">
          <mxGeometry width="50" height="50" relative="1" as="geometry">
            <mxPoint x="600" y="500" as="sourcePoint" />
            <mxPoint x="300" y="500" as="targetPoint" />
          </mxGeometry>
        </mxCell>
        <mxCell id="YyA1JXK225TJ4eiLF_QA-28" value="" style="endArrow=classic;html=1;rounded=0;strokeColor=#000000;" edge="1" parent="1">
          <mxGeometry width="50" height="50" relative="1" as="geometry">
            <mxPoint x="270" y="560" as="sourcePoint" />
            <mxPoint x="120" y="560" as="targetPoint" />
          </mxGeometry>
        </mxCell>
        <mxCell id="YyA1JXK225TJ4eiLF_QA-30" value="&lt;b&gt;&amp;nbsp;response&amp;nbsp;&lt;/b&gt;" style="edgeLabel;html=1;align=center;verticalAlign=middle;resizable=0;points=[];" vertex="1" connectable="0" parent="YyA1JXK225TJ4eiLF_QA-28">
          <mxGeometry x="-0.0819" y="1" relative="1" as="geometry">
            <mxPoint as="offset" />
          </mxGeometry>
        </mxCell>
      </root>
    </mxGraphModel>
  </diagram>
</mxfile>
